<svg xmlns="http://www.w3.org/2000/svg" viewBox="0 0 500 500"><g id="freepik--background-simple--inject-579"><path d="M461.65,378.8c27.81-60.48,29.68-141,10.48-205.64a214.78,214.78,0,0,0-95.79-123.3c-49.3-29.31-108.06-38-160.95-19.53-13.92,4.86-27.47,9.32-40.59,17.31C121,80.4,131.4,161.14,112.53,189.23,96.65,212.86,66.29,205.89,47.16,224-4.49,272.86-4.62,396.36,55,435,118.19,475.92,392.77,528.58,461.65,378.8Z" style="fill:#92E3A9"></path><path d="M461.65,378.8c27.81-60.48,29.68-141,10.48-205.64a214.78,214.78,0,0,0-95.79-123.3c-49.3-29.31-108.06-38-160.95-19.53-13.92,4.86-27.47,9.32-40.59,17.31C121,80.4,131.4,161.14,112.53,189.23,96.65,212.86,66.29,205.89,47.16,224-4.49,272.86-4.62,396.36,55,435,118.19,475.92,392.77,528.58,461.65,378.8Z" style="fill:#fff;opacity:0.8"></path></g><g id="freepik--Table--inject-579"><line x1="9.92" y1="448.35" x2="487.67" y2="448.35" style="fill:none;stroke:#263238;stroke-linecap:round;stroke-linejoin:round"></line></g><g id="freepik--Ovens--inject-579"><g style="opacity:0.30000000000000004"><rect x="219.25" y="51.8" width="164.46" height="266.41" style="fill:none;stroke:#000;stroke-linecap:round;stroke-linejoin:round"></rect><rect x="240.2" y="85.74" width="122.55" height="198.53" style="fill:none;stroke:#000;stroke-linecap:round;stroke-linejoin:round"></rect><rect x="226.4" y="124.32" width="7.94" height="116.19" rx="3.7" style="fill:none;stroke:#000;stroke-linecap:round;stroke-linejoin:round"></rect><rect x="54.68" y="51.8" width="164.46" height="266.41" transform="translate(273.82 370.01) rotate(180)" style="fill:none;stroke:#000;stroke-linecap:round;stroke-linejoin:round"></rect><rect x="75.63" y="85.74" width="122.55" height="198.53" transform="translate(273.82 370.01) rotate(180)" style="fill:none;stroke:#000;stroke-linecap:round;stroke-linejoin:round"></rect><rect x="204.05" y="124.32" width="7.94" height="116.19" rx="3.7" transform="translate(416.04 364.83) rotate(180)" style="fill:none;stroke:#000;stroke-linecap:round;stroke-linejoin:round"></rect><rect x="383.76" y="255.08" width="6.36" height="33.98" style="fill:none;stroke:#000;stroke-linecap:round;stroke-linejoin:round"></rect><rect x="383.76" y="75.74" width="6.36" height="33.98" style="fill:none;stroke:#000;stroke-linecap:round;stroke-linejoin:round"></rect><rect x="48.16" y="255.08" width="6.36" height="33.98" style="fill:none;stroke:#000;stroke-linecap:round;stroke-linejoin:round"></rect><rect x="48.16" y="75.74" width="6.36" height="33.98" style="fill:none;stroke:#000;stroke-linecap:round;stroke-linejoin:round"></rect><rect x="75.65" y="146.74" width="122.31" height="4.52" style="fill:none;stroke:#000;stroke-linecap:round;stroke-linejoin:round"></rect><rect x="75.65" y="215.11" width="122.31" height="4.52" style="fill:none;stroke:#000;stroke-linecap:round;stroke-linejoin:round"></rect><rect x="240.34" y="146.74" width="122.3" height="4.52" style="fill:none;stroke:#000;stroke-linecap:round;stroke-linejoin:round"></rect><rect x="240.34" y="215.11" width="122.3" height="4.52" style="fill:none;stroke:#000;stroke-linecap:round;stroke-linejoin:round"></rect><rect x="219.25" y="327.94" width="164.46" height="120.48" style="fill:none;stroke:#000;stroke-linecap:round;stroke-linejoin:round"></rect><rect x="240.2" y="361.88" width="122.55" height="86.54" style="fill:none;stroke:#000;stroke-linecap:round;stroke-linejoin:round"></rect><path d="M234.34,448.42V404.16a4,4,0,0,0-7.94,0v44.26Z" style="fill:none;stroke:#000;stroke-linecap:round;stroke-linejoin:round"></path><rect x="54.68" y="327.94" width="164.46" height="120.48" style="fill:none;stroke:#000;stroke-linecap:round;stroke-linejoin:round"></rect><rect x="75.63" y="361.88" width="122.55" height="86.54" style="fill:none;stroke:#000;stroke-linecap:round;stroke-linejoin:round"></rect><path d="M212,448.42V404.16a4,4,0,0,0-7.94,0v44.26Z" style="fill:none;stroke:#000;stroke-linecap:round;stroke-linejoin:round"></path><rect x="383.76" y="351.88" width="6.36" height="33.98" style="fill:none;stroke:#000;stroke-linecap:round;stroke-linejoin:round"></rect><rect x="48.15" y="351.88" width="6.36" height="33.98" style="fill:none;stroke:#000;stroke-linecap:round;stroke-linejoin:round"></rect><rect x="75.94" y="415.73" width="121.92" height="4.52" style="fill:none;stroke:#000;stroke-linecap:round;stroke-linejoin:round"></rect><rect x="240.33" y="415.73" width="121.92" height="4.52" style="fill:none;stroke:#000;stroke-linecap:round;stroke-linejoin:round"></rect><rect x="397.09" y="52.47" width="19.08" height="141.17" style="fill:none;stroke:#000;stroke-linecap:round;stroke-linejoin:round"></rect><path d="M409.16,59a2.53,2.53,0,1,1-2.52-2.35A2.44,2.44,0,0,1,409.16,59Z" style="fill:none;stroke:#000;stroke-linecap:round;stroke-linejoin:round"></path><path d="M411.42,146.33a4.8,4.8,0,1,1-4.78-4.46A4.62,4.62,0,0,1,411.42,146.33Z" style="fill:none;stroke:#000;stroke-linecap:round;stroke-linejoin:round"></path><path d="M409.16,77.57a2.53,2.53,0,1,1-2.52-2.35A2.44,2.44,0,0,1,409.16,77.57Z" style="fill:none;stroke:#000;stroke-linecap:round;stroke-linejoin:round"></path><path d="M409.16,96.13a2.53,2.53,0,1,1-2.52-2.35A2.45,2.45,0,0,1,409.16,96.13Z" style="fill:none;stroke:#000;stroke-linecap:round;stroke-linejoin:round"></path><rect x="400.18" y="108.94" width="12.91" height="9.93" style="fill:none;stroke:#000;stroke-linecap:round;stroke-linejoin:round"></rect><rect x="400.13" y="179.96" width="13.01" height="3.22" style="fill:none;stroke:#000;stroke-linecap:round;stroke-linejoin:round"></rect><rect x="83.16" y="131.42" width="23.65" height="15.41" style="fill:none;stroke:#000;stroke-linecap:round;stroke-linejoin:round"></rect><rect x="80.45" y="129.35" width="29.07" height="2.01" style="fill:none;stroke:#000;stroke-linecap:round;stroke-linejoin:round"></rect><rect x="114.94" y="131.42" width="23.65" height="15.41" style="fill:none;stroke:#000;stroke-linecap:round;stroke-linejoin:round"></rect><rect x="112.23" y="129.35" width="29.07" height="2.01" style="fill:none;stroke:#000;stroke-linecap:round;stroke-linejoin:round"></rect><path d="M112.56,202.92c0-.44.07-.88.07-1.33a15.14,15.14,0,1,0-30.28,0c0,.45,0,.89.06,1.33Z" style="fill:none;stroke:#000;stroke-linecap:round;stroke-linejoin:round"></path><rect x="82.51" y="202.92" width="30" height="12.22" style="fill:none;stroke:#000;stroke-linecap:round;stroke-linejoin:round"></rect><path d="M152.74,202.92c0-.44.06-.88.06-1.33a15.14,15.14,0,0,0-30.28,0c0,.45,0,.89.07,1.33Z" style="fill:none;stroke:#000;stroke-linecap:round;stroke-linejoin:round"></path><rect x="122.69" y="202.92" width="30" height="12.22" style="fill:none;stroke:#000;stroke-linecap:round;stroke-linejoin:round"></rect><path d="M192.91,202.92c0-.44.07-.88.07-1.33a15.14,15.14,0,1,0-30.28,0c0,.45,0,.89.06,1.33Z" style="fill:none;stroke:#000;stroke-linecap:round;stroke-linejoin:round"></path><rect x="162.86" y="202.92" width="30" height="12.22" style="fill:none;stroke:#000;stroke-linecap:round;stroke-linejoin:round"></rect><path d="M276.31,134.19c0-.44.07-.88.07-1.33a15.14,15.14,0,1,0-30.28,0c0,.45,0,.89.07,1.33Z" style="fill:none;stroke:#000;stroke-linecap:round;stroke-linejoin:round"></path><rect x="246.27" y="134.19" width="30" height="12.22" style="fill:none;stroke:#000;stroke-linecap:round;stroke-linejoin:round"></rect><path d="M316.49,134.19c0-.44.07-.88.07-1.33a15.14,15.14,0,1,0-30.28,0c0,.45,0,.89.06,1.33Z" style="fill:none;stroke:#000;stroke-linecap:round;stroke-linejoin:round"></path><rect x="286.44" y="134.19" width="30" height="12.22" style="fill:none;stroke:#000;stroke-linecap:round;stroke-linejoin:round"></rect><path d="M356.67,134.19c0-.44.06-.88.06-1.33a15.14,15.14,0,0,0-30.28,0c0,.45,0,.89.07,1.33Z" style="fill:none;stroke:#000;stroke-linecap:round;stroke-linejoin:round"></path><rect x="326.62" y="134.19" width="30" height="12.22" style="fill:none;stroke:#000;stroke-linecap:round;stroke-linejoin:round"></rect><path d="M276.54,403.5c0-.44.06-.88.06-1.33a15.14,15.14,0,0,0-30.28,0c0,.45,0,.89.07,1.33Z" style="fill:none;stroke:#000;stroke-linecap:round;stroke-linejoin:round"></path><rect x="246.49" y="403.5" width="30" height="12.22" style="fill:none;stroke:#000;stroke-linecap:round;stroke-linejoin:round"></rect><path d="M316.71,403.5c0-.44.07-.88.07-1.33a15.14,15.14,0,1,0-30.28,0c0,.45,0,.89.07,1.33Z" style="fill:none;stroke:#000;stroke-linecap:round;stroke-linejoin:round"></path><rect x="286.66" y="403.5" width="30" height="12.22" style="fill:none;stroke:#000;stroke-linecap:round;stroke-linejoin:round"></rect><path d="M356.89,403.5c0-.44.06-.88.06-1.33a15.14,15.14,0,1,0-30.28,0c0,.45,0,.89.07,1.33Z" style="fill:none;stroke:#000;stroke-linecap:round;stroke-linejoin:round"></path><rect x="326.84" y="403.5" width="30" height="12.22" style="fill:none;stroke:#000;stroke-linecap:round;stroke-linejoin:round"></rect><path d="M109.27,403.5c0-.44.07-.88.07-1.33a15.14,15.14,0,0,0-30.28,0c0,.45,0,.89.07,1.33Z" style="fill:none;stroke:#000;stroke-linecap:round;stroke-linejoin:round"></path><rect x="79.23" y="403.5" width="30" height="12.22" style="fill:none;stroke:#000;stroke-linecap:round;stroke-linejoin:round"></rect><path d="M149.45,403.5c0-.44.07-.88.07-1.33a15.14,15.14,0,0,0-30.28,0c0,.45,0,.89.06,1.33Z" style="fill:none;stroke:#000;stroke-linecap:round;stroke-linejoin:round"></path><rect x="119.4" y="403.5" width="30" height="12.22" style="fill:none;stroke:#000;stroke-linecap:round;stroke-linejoin:round"></rect><path d="M189.63,403.5c0-.44.06-.88.06-1.33a15.14,15.14,0,1,0-30.28,0c0,.45,0,.89.07,1.33Z" style="fill:none;stroke:#000;stroke-linecap:round;stroke-linejoin:round"></path><rect x="159.58" y="403.5" width="30" height="12.22" style="fill:none;stroke:#000;stroke-linecap:round;stroke-linejoin:round"></rect></g></g><g id="freepik--Character--inject-579"><path d="M227.37,226.69s-44.71,8-52.37,8.94-19.16,0-21.08,8.3-5.1,99.63-1.27,115.59,11.49,88.83,11.49,88.83h145l2.55-59.77s23.95-11.18,24.27-18.84-4.15-31.93-4.15-38.32,6.71-54.28,5.75-58.75-37.36-20.44-45.34-24S259,222.86,227.37,226.69Z" style="fill:#fff;stroke:#263238;stroke-linecap:round;stroke-linejoin:round"></path><path d="M332.71,358.79a27.32,27.32,0,0,1,4.87,8.52c1.45,4.62-3.9,14.35-6.33,19.94s-15.32,22.14-20.19,20.43-32.11-21.89-33.81-26S270,343,270,343l18.24-4.86s37.21,17.51,39.89,20.67,4.38,5.6,4.38,5.6" style="fill:#fff;stroke:#263238;stroke-linecap:round;stroke-linejoin:round"></path><path d="M288.2,338.12,270,343s5.59,34.54,7.29,38.68c.35.84,1.77,2.36,3.84,4.25,5.64-3.09,14.45-8.69,19.55-15.83,5-7,7-16.21,7.87-22.13C298.4,342.92,288.2,338.12,288.2,338.12Z" style="fill:#263238;stroke:#263238;stroke-linecap:round;stroke-linejoin:round"></path><path d="M274.58,345.17l4.86,27.49S294.52,356.85,295,354.9s-9.24-18-9.24-18Z" style="fill:#bfbfbf;stroke:#263238;stroke-linecap:round;stroke-linejoin:round"></path><path d="M252.82,184.48s-12.72-6-14.64-7.19-7.92-21.36-8.64-26.16,19-20.63,39.83-23.75,43.91-4.32,50.15-.48,30,33.59,34.79,48.71-3.84,25.91-9.36,31.19-27.35,6-27.35,6l5-19.2a46.9,46.9,0,0,0-22.32-18.23c-14.87-5.52-41.27-5.28-41.27-5.28Z" style="fill:#fff;stroke:#263238;stroke-linecap:round;stroke-linejoin:round"></path><path d="M257.57,164.9H244.93" style="fill:none;stroke:#263238;stroke-linecap:round;stroke-linejoin:round"></path><path d="M253.38,153.28c-2.9-1.76-6-3.65-8.45-5.1-6.12-3.67-9,.41-4.9,1.22" style="fill:none;stroke:#263238;stroke-linecap:round;stroke-linejoin:round"></path><path d="M261.69,158.33l-6-3.62" style="fill:none;stroke:#263238;stroke-linecap:round;stroke-linejoin:round"></path><path d="M271.85,155.11S269,141.24,268.18,138" style="fill:none;stroke:#263238;stroke-linecap:round;stroke-linejoin:round"></path><path d="M299.88,140.44c0-2.39,0-4.45.11-5.72" style="fill:none;stroke:#263238;stroke-linecap:round;stroke-linejoin:round"></path><path d="M300.4,158.78s-.26-6-.41-12.13" style="fill:none;stroke:#263238;stroke-linecap:round;stroke-linejoin:round"></path><path d="M332,166.05a36.43,36.43,0,0,1,5.5-1.56" style="fill:none;stroke:#263238;stroke-linecap:round;stroke-linejoin:round"></path><path d="M320,170.2s3-1.08,6.54-2.3" style="fill:none;stroke:#263238;stroke-linecap:round;stroke-linejoin:round"></path><path d="M328.16,182.08s22.82,8.93,22,11.37-4.08,3.27-6.12.41" style="fill:none;stroke:#263238;stroke-linecap:round;stroke-linejoin:round"></path><line x1="325.04" y1="200.8" x2="330.58" y2="208.14" style="fill:none;stroke:#263238;stroke-linecap:round;stroke-linejoin:round"></line><path d="M253.77,195.76l-14.59,22S236,219,237,229.56s5.74,23.31,9.89,28.74,5.26,15.92,5.26,15.92l5.75-.48s19-15.44,21.88-19.91,3.84-6.07,3.84-6.07Z" style="fill:#bfbfbf;stroke:#263238;stroke-linecap:round;stroke-linejoin:round"></path><path d="M239.38,213.76S237.7,231,242,241.35s11.51,14.64,12.23,18.24-2.15,14.63-2.15,14.63S238.66,262.47,232.9,249s-7-23.28-6.48-24.48S238.18,213.28,239.38,213.76Z" style="fill:#263238;stroke:#263238;stroke-linecap:round;stroke-linejoin:round"></path><path d="M261.45,261l-3.6,12.71s11.28-2.88,16.56-6.95,11-11.28,11-11.28l-10.08-2.16S266,258.63,261.45,261Z" style="fill:#263238;stroke:#263238;stroke-linecap:round;stroke-linejoin:round"></path><path d="M250.9,178.48s-3.12,5.76-3.12,10.8a23.28,23.28,0,0,0,2.4,9.6c.24.72-1,3.84-1,5.52s2.4,5,2.4,5,7.43-14.88,9.35-22.8,2.64-11,3.12-11.75S258.09,173.93,250.9,178.48Z" style="fill:#bfbfbf;stroke:#263238;stroke-linecap:round;stroke-linejoin:round"></path><path d="M260.49,175.85s-4.56,14.63-6.72,19.91-7.91,13-8.39,21.6-1.92,23.75,15.83,33.59,30,6.72,38.87-2.4,14.88-24,17-27.59,7.68-18.48,7.92-20.16-.48-7.44-.48-7.44-6-14.88-26.88-18.71-35.27-3.12-35.27-3.12Z" style="fill:#bfbfbf;stroke:#263238;stroke-linecap:round;stroke-linejoin:round"></path><path d="M307.38,239.08l-5.86,5.15s-.24-1.92-.72-4.8-3.59-5.76-3.59-5.76-3.36,1-11.52-3.12-7-10.55-7-10.55l-7-2.16a52,52,0,0,0-10.56-2.4s-2.4-7-1.44-11.76,6-16.32,6-16.32,7-2.16,9.12-5,2.64-8.87,2.64-8.87l-.64-1.51a128.86,128.86,0,0,0-14.48-.41l-1.92,4.32s-4.56,14.63-6.72,19.91-7.91,13-8.39,21.6-1.92,23.75,15.83,33.59,30,6.72,38.87-2.4A59.44,59.44,0,0,0,307.38,239.08Z" style="fill:#263238;stroke:#263238;stroke-linecap:round;stroke-linejoin:round"></path><path d="M284,217.12s-5.28-.72-5.28,2.88" style="fill:none;stroke:#263238;stroke-linecap:round;stroke-linejoin:round"></path><path d="M297.21,233.67s3.59-3.36,3.59-5.52-1.44-9.59-1-11.75,4.08-7.92,4.08-7.92" style="fill:none;stroke:#263238;stroke-linecap:round;stroke-linejoin:round"></path><path d="M296.25,199.6a79.16,79.16,0,0,0-9.84-5.76c-5-2.4-10.8-1.44-9.6-.72a60.28,60.28,0,0,0,6.48,2.4s5,3.6,8.16,4.8S295.77,202.72,296.25,199.6Z" style="fill:#263238;stroke:#263238;stroke-linecap:round;stroke-linejoin:round"></path><path d="M308.72,204.4s-3.12,2.4-2.16,2.88,8.16,2.4,9.12,2.88,3.84,6,3.84,4.32.72-3.6,0-5.52S311.6,202.72,308.72,204.4Z" style="fill:#263238;stroke:#263238;stroke-linecap:round;stroke-linejoin:round"></path><path d="M284.81,208.36c-1.13,1.55-2.79,2.27-3.7,1.6s-.72-2.46.41-4,2.8-2.26,3.71-1.6S286,206.82,284.81,208.36Z" style="fill:#263238"></path><path d="M308.21,219c-1.14,1.55-2.8,2.27-3.71,1.6s-.72-2.46.42-4,2.79-2.27,3.7-1.6S309.34,217.49,308.21,219Z" style="fill:#263238"></path><path d="M265.05,222.63s-2,12.63,1.32,15.27,8.35,5.41,11,3.73a5.65,5.65,0,0,0,2.57-4.6S268.41,228.39,265.05,222.63Z" style="fill:#bfbfbf;stroke:#263238;stroke-linecap:round;stroke-linejoin:round"></path><path d="M289.29,237.27s-5.28,1.2-9.36-.24-12.72-7.44-13.68-10.8-1.44-5.27-1.44-5.27a25.17,25.17,0,0,0,8.64,5.75C278.25,228.39,288.33,234.87,289.29,237.27Z" style="fill:#bfbfbf;stroke:#263238;stroke-linecap:round;stroke-linejoin:round"></path><path d="M273.45,205.6a21.54,21.54,0,0,1,5,3.84" style="fill:none;stroke:#263238;stroke-linecap:round;stroke-linejoin:round"></path><path d="M313,223.59a14.94,14.94,0,0,0-4.8-.72" style="fill:none;stroke:#263238;stroke-linecap:round;stroke-linejoin:round"></path><path d="M261.69,158.33,250.9,178.48s22.55-6,41.27.48S325,200.8,325,200.8s3.36-15.84,3.12-18.72S315.2,164.57,303,160,268.65,155.21,261.69,158.33Z" style="fill:#fff;stroke:#263238;stroke-linecap:round;stroke-linejoin:round"></path><path d="M207.25,267.24s2.55-7.66,3.83-12.45,2.88-6.71,5.11-6.07,2.24,3.19,2.55,8.94l.32,5.75Z" style="fill:#bfbfbf;stroke:#263238;stroke-linecap:round;stroke-linejoin:round"></path><path d="M303.53,363.73a1.48,1.48,0,0,1-1-.43l-4.3-4.22a1.5,1.5,0,0,1,2.11-2.14l4.29,4.22a1.5,1.5,0,0,1,0,2.12A1.48,1.48,0,0,1,303.53,363.73Z" style="fill:#fff;stroke:#263238;stroke-linecap:round;stroke-linejoin:round"></path><polygon points="292.97 342.5 302.23 355.23 295.32 361.15 282.23 351.36 292.97 342.5" style="fill:#fff;stroke:#263238;stroke-linecap:round;stroke-linejoin:round"></polygon><polygon points="291.7 358.24 299.41 351.47 302.23 355.23 295.32 361.15 291.7 358.24" style="fill:none;stroke:#263238;stroke-linecap:round;stroke-linejoin:round"></polygon><path d="M242.05,283.85S256.73,291,264,298.74s23.89,33.56,25.77,37.05S293,342.5,293,342.5l-10.74,8.86s-22.28-9.13-32.75-19.6S224.79,302,224.79,302,222.54,281.3,242.05,283.85Z" style="fill:#92E3A9;stroke:#263238;stroke-linecap:round;stroke-linejoin:round"></path><path d="M238.86,287.36s5.85,3.85,8,6.89" style="fill:none;stroke:#263238;stroke-linecap:round;stroke-linejoin:round"></path><path d="M232.77,298.6s5.43,3.47,7.16,4.34" style="fill:none;stroke:#263238;stroke-linecap:round;stroke-linejoin:round"></path><path d="M229.73,303.59s2.17,4.13,4.12,5.43" style="fill:none;stroke:#263238;stroke-linecap:round;stroke-linejoin:round"></path><path d="M242.05,283.85a56.07,56.07,0,0,1,5,4.54" style="fill:none;stroke:#263238;stroke-linecap:round;stroke-linejoin:round"></path><polygon points="205.65 371.02 206.11 335.23 192.38 354.24 205.65 371.02" style="fill:#263238;stroke:#263238;stroke-linecap:round;stroke-linejoin:round"></polygon><path d="M201.18,307.16s-2.87-32.26-1.59-34.17,17.24-15.33,19.15-15.33,5.11,4.79,5.11,4.79,4.15,1,5.11,2.56a18.5,18.5,0,0,1,1.6,4.15s4.15-.32,5.43,2.87a17.19,17.19,0,0,1,1.27,5.75,4.92,4.92,0,0,1,3.52,1.6c1.27,1.59,1.27,4.47,1.27,4.47s-1.59,1.91-3.19,3.51-7,1.91-8,5.75-.64,17.24-3.83,23.31a27.42,27.42,0,0,1-8,9.26l-19.79,28.73s-5.43-9.58-6.71-24.58,1-19.8,1-19.8Z" style="fill:#bfbfbf;stroke:#263238;stroke-linecap:round;stroke-linejoin:round"></path><path d="M223.85,262.45s-13.09,10.86-14.68,12.14-4.47,2.23-4.47,5.42" style="fill:none;stroke:#263238;stroke-linecap:round;stroke-linejoin:round"></path><path d="M230.56,269.16l-13.09,9.9s-5.43-.32-6.39,4.47" style="fill:none;stroke:#263238;stroke-linecap:round;stroke-linejoin:round"></path><path d="M237.26,277.78s-15,9.26-16,9.58-4.79,1.59-4.79,4.15v2.55" style="fill:none;stroke:#263238;stroke-linecap:round;stroke-linejoin:round"></path><path d="M182,275.77c-2.69-9-6.27-19.75-8.32-23.86-3.51-7-16.92-12.77-19.8-8s-12.16,48.48-12.16,49.75-17.2,39.13-5.36,67.42c1.85,4.42,22.45,16.48,28.52,15.84S205.65,371,205.65,371s-9.26-22-9.58-30.66S193.52,310,193.52,310L161,312.58" style="fill:#fff;stroke:#263238;stroke-linecap:round;stroke-linejoin:round"></path><path d="M185.54,289.27a80.22,80.22,0,0,0-2.28-9.32" style="fill:#fff;stroke:#263238;stroke-linecap:round;stroke-linejoin:round"></path><path d="M155.22,336c-.06,1.28-.07,2.61,0,4" style="fill:none;stroke:#263238;stroke-linecap:round;stroke-linejoin:round"></path><path d="M162.55,316.1s-5,5-6.79,15.09" style="fill:none;stroke:#263238;stroke-linecap:round;stroke-linejoin:round"></path><path d="M155.2,306.52s14.37-2.56,21.08,2.87" style="fill:none;stroke:#263238;stroke-linecap:round;stroke-linejoin:round"></path><path d="M276.06,304.92s-9.93-6.72-12.08-6.18-8.86,7.79-10.47,9.4-.8,5.1,2.42,5.63,9.66-5.1,9.66-5.1l5.91,1.08,7-1.61Z" style="fill:#bfbfbf;stroke:#263238;stroke-linecap:round;stroke-linejoin:round"></path><path d="M283,309.4a2.44,2.44,0,0,0-2.72-2.09c-4.37.57-14.4,2-15.44,3.24-1.35,1.61-7.79,9.93-8.86,11.28s-1.61,2.41.53,3.49,4.57.27,7-1.61a61.55,61.55,0,0,0,6.45-6.71s11.54-1.62,12.34-2.42C282.82,314,283.26,311.6,283,309.4Z" style="fill:#bfbfbf;stroke:#263238;stroke-linecap:round;stroke-linejoin:round"></path><path d="M289,321.52s-3-7.11-4.54-7.42-12.25,2.42-13.46,3.79-6.2,10.43-7.26,11.79,0,2.42,2,2.88,3.78-1.36,4.53-2.12,5.45-4.84,5.45-4.84Z" style="fill:#bfbfbf;stroke:#263238;stroke-linecap:round;stroke-linejoin:round"></path><path d="M289.75,335.79s2.12-9.13,2.12-10.64-.3-2.12-2.87-3.63-11.34.75-12.4,1.81-4.09,8.17-5,9.38.45,3.33,2.42,3.48,8-6.35,8-6.35l3.63-.31Z" style="fill:#bfbfbf;stroke:#263238;stroke-linecap:round;stroke-linejoin:round"></path><path d="M309.81,285.29s-1.18,27-2.64,37.24-2.93,22.87-2.93,22.87" style="fill:none;stroke:#263238;stroke-linecap:round;stroke-linejoin:round"></path><path d="M309.51,301.12s12.91-22.87,17.31-27.27" style="fill:none;stroke:#263238;stroke-linecap:round;stroke-linejoin:round"></path><line x1="293.97" y1="271.5" x2="237.38" y2="275.02" style="fill:none;stroke:#263238;stroke-linecap:round;stroke-linejoin:round"></line><line x1="297.25" y1="310.9" x2="297.2" y2="317.54" style="fill:none;stroke:#263238;stroke-linecap:round;stroke-linejoin:round"></line><line x1="297.49" y1="277.37" x2="297.27" y2="307.73" style="fill:none;stroke:#263238;stroke-linecap:round;stroke-linejoin:round"></line><path d="M221.15,366.69c-.34,15-.66,29.73-.78,36.19-.3,15.54.88,30.79.88,30.79" style="fill:none;stroke:#263238;stroke-linecap:round;stroke-linejoin:round"></path><path d="M222.13,324s-.44,18.65-.88,38.19" style="fill:none;stroke:#263238;stroke-linecap:round;stroke-linejoin:round"></path><circle cx="277.55" cy="283.23" r="2.35" style="fill:#263238;stroke:#263238;stroke-linecap:round;stroke-linejoin:round"></circle><circle cx="228.87" cy="337.19" r="2.35" style="fill:#263238;stroke:#263238;stroke-linecap:round;stroke-linejoin:round"></circle><circle cx="226.82" cy="378.25" r="2.35" style="fill:#263238;stroke:#263238;stroke-linecap:round;stroke-linejoin:round"></circle><path d="M228.28,424.58a2.35,2.35,0,1,1-2.34-2.35A2.35,2.35,0,0,1,228.28,424.58Z" style="fill:#263238;stroke:#263238;stroke-linecap:round;stroke-linejoin:round"></path><circle cx="271.69" cy="375.31" r="2.35" style="fill:#263238;stroke:#263238;stroke-linecap:round;stroke-linejoin:round"></circle><circle cx="273.15" cy="420.18" r="2.35" style="fill:#263238;stroke:#263238;stroke-linecap:round;stroke-linejoin:round"></circle><path d="M196.07,340.36c-.32-8.62-2.55-30.33-2.55-30.33l-12,.94c-1.79,9.25-4.4,26.75-1.8,40.1,2.29,11.76,6.31,17.74,9.88,22.07,5.81-.6,16.06-2.12,16.06-2.12S196.39,349,196.07,340.36Z" style="fill:#263238;stroke:#263238;stroke-linecap:round;stroke-linejoin:round"></path></g><g id="freepik--Cake--inject-579"><path d="M401.38,446.18c-.14-1.15-2.38-2-5.73-3.61s-4.76-2.45-8.53-7.22-2.66-12.41-2.66-12.41l-8.81-.72-8.82.72s1.12,7.65-2.65,12.41-5.18,5.63-8.54,7.22-5.59,2.46-5.73,3.61a9.45,9.45,0,0,0,0,2.17h51.47A9.45,9.45,0,0,0,401.38,446.18Z" style="fill:#fff;stroke:#263238;stroke-linecap:round;stroke-linejoin:round"></path><path d="M389.12,437.76c-.6-.67-1.25-1.46-2-2.41-2.33-2.93-2.8-7-2.82-9.62H367c0,2.66-.49,6.69-2.81,9.62-.75.95-1.41,1.74-2,2.41Z" style="fill:#263238;stroke:#263238;stroke-linecap:round;stroke-linejoin:round"></path><path d="M349.91,446.18a9.45,9.45,0,0,0,0,2.17h51.47a9.45,9.45,0,0,0,0-2.17,1.12,1.12,0,0,0-.26-.58H350.17A1.12,1.12,0,0,0,349.91,446.18Z" style="fill:none;stroke:#263238;stroke-linecap:round;stroke-linejoin:round"></path><polygon points="394.58 406.57 356.02 406.57 352.62 402.51 397.98 402.51 394.58 406.57" style="fill:#263238;stroke:#263238;stroke-linecap:round;stroke-linejoin:round"></polygon><path d="M394.57,406.57l-18-.06H374l-18,.06a22.05,22.05,0,0,0,18,11.56v.13c.45,0,.89,0,1.32,0s.86,0,1.31,0v-.13A22.05,22.05,0,0,0,394.57,406.57Z" style="fill:#263238;stroke:#263238;stroke-linecap:round;stroke-linejoin:round"></path><path d="M385.9,424.15l-9.88,0h-1.45l-9.88,0s2.58-5.24,9.88-5.86v-.06H376v.06C383.33,418.91,385.9,424.15,385.9,424.15Z" style="fill:#263238;stroke:#263238;stroke-linecap:round;stroke-linejoin:round"></path><rect x="276.07" y="394.33" width="198.47" height="4.38" style="fill:#fff;stroke:#263238;stroke-linecap:round;stroke-linejoin:round"></rect><polygon points="434.34 402.76 316.26 402.76 305.84 398.7 444.76 398.7 434.34 402.76" style="fill:#263238;stroke:#263238;stroke-linecap:round;stroke-linejoin:round"></polygon><path d="M353.38,181.65h41a6.08,6.08,0,0,1,6.08,6.08v45.76a0,0,0,0,1,0,0H347.3a0,0,0,0,1,0,0V187.73A6.08,6.08,0,0,1,353.38,181.65Z" style="fill:#fff;stroke:#263238;stroke-linecap:round;stroke-linejoin:round"></path><path d="M339.88,233.49h68a6.23,6.23,0,0,1,6.23,6.23v45.61a0,0,0,0,1,0,0h-80.5a0,0,0,0,1,0,0V239.72A6.23,6.23,0,0,1,339.88,233.49Z" style="fill:#fff;stroke:#263238;stroke-linecap:round;stroke-linejoin:round"></path><path d="M319.72,285.33H428.08a5.08,5.08,0,0,1,5.08,5.08v46.77a0,0,0,0,1,0,0H314.64a0,0,0,0,1,0,0V290.4A5.08,5.08,0,0,1,319.72,285.33Z" style="fill:#fff;stroke:#263238;stroke-linecap:round;stroke-linejoin:round"></path><path d="M306.85,337.17H440.95a5.38,5.38,0,0,1,5.38,5.38v51.89a0,0,0,0,1,0,0H301.47a0,0,0,0,1,0,0V342.55A5.38,5.38,0,0,1,306.85,337.17Z" style="fill:#fff;stroke:#263238;stroke-linecap:round;stroke-linejoin:round"></path><path d="M445.13,356.71c-5.19,0-7.85-2.77-10-5s-3.23-3.23-5.83-3.23-3.8,1.1-5.84,3.23-4.81,5-10,5-7.85-2.77-10-5-3.23-3.23-5.83-3.23-3.8,1.1-5.84,3.23-4.81,5-10,5-7.85-2.77-10-5-3.23-3.23-5.84-3.23-3.8,1.1-5.84,3.23-4.81,5-10,5-7.85-2.77-10-5-3.23-3.23-5.84-3.23-3.79,1.1-5.83,3.23-4.81,5-10,5-7.85-2.77-10-5-3.23-3.23-5.84-3.23a2.89,2.89,0,0,1,0-5.77c5.19,0,7.85,2.78,10,5s3.23,3.23,5.84,3.23,3.79-1.11,5.83-3.23,4.81-5,10-5,7.85,2.78,10,5,3.22,3.24,5.83,3.24,3.8-1.11,5.84-3.24,4.8-5,10-5,7.85,2.78,10,5,3.23,3.24,5.84,3.24,3.79-1.11,5.83-3.23,4.81-5,10-5,7.85,2.78,10,5,3.23,3.24,5.83,3.24,3.8-1.11,5.84-3.24,4.81-5,10-5,7.85,2.78,10,5,3.23,3.24,5.84,3.24a2.88,2.88,0,0,1,0,5.76Z" style="fill:#92E3A9;stroke:#263238;stroke-linecap:round;stroke-linejoin:round"></path><path d="M433.16,291.3a11.23,11.23,0,0,0-5.12-1.15c-5.07,0-7.67,2.71-9.77,4.89s-3.15,3.16-5.7,3.16-3.71-1.08-5.71-3.16-4.7-4.89-9.76-4.89-7.68,2.71-9.77,4.89-3.15,3.16-5.7,3.16-3.71-1.08-5.71-3.16-4.69-4.89-9.76-4.89-7.67,2.71-9.77,4.89-3.15,3.16-5.7,3.16S347,297.12,345,295s-4.7-4.89-9.77-4.89-7.67,2.71-9.76,4.89-3.16,3.16-5.71,3.16c-2.28,0-3.45-.88-5.11-2.55v7a11.21,11.21,0,0,0,5.11,1.15c5.07,0,7.68-2.72,9.77-4.89s3.15-3.16,5.7-3.16,3.71,1.08,5.7,3.16,4.7,4.89,9.77,4.89,7.67-2.72,9.76-4.89,3.16-3.16,5.71-3.16,3.71,1.08,5.7,3.16,4.7,4.89,9.77,4.89,7.67-2.72,9.76-4.89,3.16-3.16,5.71-3.16,3.71,1.08,5.7,3.16,4.7,4.89,9.77,4.89,7.67-2.72,9.76-4.89,3.16-3.16,5.71-3.16c2.29,0,3.46.88,5.12,2.55Z" style="fill:#92E3A9;stroke:#263238;stroke-linecap:round;stroke-linejoin:round"></path><path d="M414.15,245.42a6.36,6.36,0,0,1-1.58.18c-2.55,0-3.71-1.08-5.71-3.16s-4.7-4.88-9.76-4.88-7.68,2.71-9.77,4.89-3.15,3.15-5.7,3.15-3.71-1.08-5.71-3.16-4.69-4.88-9.76-4.88-7.67,2.71-9.77,4.88-3.15,3.16-5.7,3.16-3.71-1.08-5.7-3.16-4.7-4.88-9.77-4.88a12.14,12.14,0,0,0-1.51.09,5.32,5.32,0,0,0-.06.81v4.91a6.27,6.27,0,0,1,1.57-.18c2.55,0,3.71,1.08,5.7,3.16s4.7,4.89,9.77,4.89,7.67-2.71,9.76-4.89,3.16-3.16,5.71-3.16,3.71,1.08,5.7,3.16,4.7,4.89,9.77,4.89,7.67-2.71,9.76-4.89,3.16-3.16,5.71-3.16,3.71,1.08,5.7,3.16,4.7,4.89,9.77,4.89a13.12,13.12,0,0,0,1.58-.1Z" style="fill:#92E3A9;stroke:#263238;stroke-linecap:round;stroke-linejoin:round"></path><path d="M387.33,190.05c-2,2.08-3.15,3.16-5.7,3.16s-3.71-1.08-5.71-3.16-4.69-4.89-9.76-4.89-7.67,2.71-9.77,4.89-3.15,3.16-5.7,3.16a5.49,5.49,0,0,1-3.39-1v6.2a12,12,0,0,0,3.39.46c5.07,0,7.67-2.71,9.76-4.88s3.16-3.16,5.71-3.16,3.71,1.08,5.7,3.16,4.7,4.88,9.77,4.88,7.67-2.71,9.76-4.88,3.16-3.16,5.71-3.16a5.46,5.46,0,0,1,3.4,1v-5.37a6.11,6.11,0,0,0-.07-.86,12,12,0,0,0-3.33-.45C392,185.16,389.42,187.87,387.33,190.05Z" style="fill:#92E3A9;stroke:#263238;stroke-linecap:round;stroke-linejoin:round"></path></g><g id="freepik--Mixer--inject-579"><path d="M19.47,336.56v10.57a8,8,0,0,0,6.09,4.48c4.48.64,12.17,2.24,14.73,5.45s2.24,5.76,2.24,5.76S31.32,425.6,28.12,430.41s-6.41,4.16-8.65,8.33a23.38,23.38,0,0,0-2.24,9.61h131s-.32-5.45-1.6-8-5.13-2.56-5.13-2.56H112.36s-14.73-.33-26.58-9.29-19.54-29.79-19.54-39.4V357.38s3.84-3.21,8-3.85,18.9,0,18.9,0v3.53h40V335.27H145V320.86H131.58a24.39,24.39,0,0,0-20.5-12.81c-14.73-.64-69.19,0-69.19,0S19.47,304.84,19.47,336.56Z" style="fill:#92E3A9;stroke:#263238;stroke-linecap:round;stroke-linejoin:round"></path><rect x="19.47" y="337.2" width="113.71" height="7.37" style="fill:#b2b2b2;stroke:#263238;stroke-linecap:round;stroke-linejoin:round"></rect><rect x="93.14" y="353.53" width="40.04" height="3.52" style="fill:#263238;stroke:#263238;stroke-linecap:round;stroke-linejoin:round"></rect><line x1="41.89" y1="308.05" x2="41.89" y2="337.2" style="fill:none;stroke:#263238;stroke-linecap:round;stroke-linejoin:round"></line><path d="M132.54,323.42a32.81,32.81,0,0,1,1,9.29" style="fill:none;stroke:#263238;stroke-linecap:round;stroke-linejoin:round"></path><path d="M44.78,359.3s9-6.73,18.89,0" style="fill:none;stroke:#263238;stroke-linecap:round;stroke-linejoin:round"></path><path d="M99.46,357.53v.35a2.4,2.4,0,0,0,2.41,2.4h5.83v4.47h9.62v-4.64h5.49a2.41,2.41,0,0,0,2.41-2.4h0" style="fill:#fff;stroke:#263238;stroke-linecap:round;stroke-linejoin:round"></path><path d="M97.8,432.72H128c16.2-8.63,27.6-29.23,27.6-53.28a74.23,74.23,0,0,0-1.2-13.32h-83a74.22,74.22,0,0,0-1.21,13.32C70.2,403.49,81.61,424.09,97.8,432.72Z" style="fill:#b2b2b2;stroke:#263238;stroke-linecap:round;stroke-linejoin:round"></path><path d="M151.17,366.12h-4.85a91.45,91.45,0,0,1,1,13.32c0,24.05-9.19,44.65-22.25,53.28h1.77c14.95-8.63,25.48-29.23,25.48-53.28A79.18,79.18,0,0,0,151.17,366.12Z" style="fill:#263238;stroke:#263238;stroke-linecap:round;stroke-linejoin:round"></path><path d="M78.47,379.44a90.06,90.06,0,0,1,1-13.32H74.59a80.25,80.25,0,0,0-1.11,13.32c0,24.05,10.53,44.65,25.48,53.28h1.76C87.67,424.09,78.47,403.49,78.47,379.44Z" style="fill:#263238;stroke:#263238;stroke-linecap:round;stroke-linejoin:round"></path><path d="M155.84,366.39H69.66a.82.82,0,0,1-.82-.81h0a.82.82,0,0,1,.82-.82h86.18a.82.82,0,0,1,.81.82h0A.81.81,0,0,1,155.84,366.39Z" style="fill:#fff;stroke:#263238;stroke-linecap:round;stroke-linejoin:round"></path><rect x="97.8" y="432.72" width="30.91" height="4.69" style="fill:#b2b2b2;stroke:#263238;stroke-linecap:round;stroke-linejoin:round"></rect><path d="M132.78,368.76c.08,5.23.2,27.54-3.19,39.51-3.86,13.63,5.22,5.68,8.85-6.35,3.1-10.28,3.72-28.15,3.83-33.16Z" style="fill:#fff"></path><path d="M33.94,315.35s2.9.58,6.09,1.45,73.32,0,73.32,0,4.06,1.74,5.22,3.77,2.61-2.9,1.74-4.35-5.51-2.9-7-3.19-72.74,0-72.74,0S34.81,313.61,33.94,315.35Z" style="fill:#fff"></path><rect x="124.36" y="324.34" width="4.06" height="4.93" style="fill:#fff"></rect><rect x="123.21" y="346.07" width="2.9" height="6.38" style="fill:#fff"></rect><path d="M119.44,442.87s-21.16-1.74-31.59-9-13.33-10.43-13.33-10.43l2.9,7.82s-10.15-1.73-9.57,3.19,13.62,6.09,17.39,5.51,10.43.29,10.43.29S115.67,443.45,119.44,442.87Z" style="fill:#fff"></path><path d="M21.48,446.34s-1.16-1.15,2-5.79S32.79,435.62,35.1,424s11-61.44,11-61.44" style="fill:none;stroke:#fff;stroke-miterlimit:10"></path></g></svg>
