<svg xmlns="http://www.w3.org/2000/svg" viewBox="0 0 500 500"><g id="freepik--background-simple--inject-518"><path d="M34.48,364.64s19.82,78.24,83.25,101.49S233.33,445.7,284.58,428c26.84-9.26,54.66,1.71,82.08,0,87.69-5.43,137.59-135.76,112.46-220.2-21.75-73.1-71-118.42-151.9-142.29S190,21.17,108,72.87,12.77,262.61,34.48,364.64Z" style="fill:#92E3A9"></path><path d="M34.48,364.64s19.82,78.24,83.25,101.49S233.33,445.7,284.58,428c26.84-9.26,54.66,1.71,82.08,0,87.69-5.43,137.59-135.76,112.46-220.2-21.75-73.1-71-118.42-151.9-142.29S190,21.17,108,72.87,12.77,262.61,34.48,364.64Z" style="fill:#fff;opacity:0.7000000000000001"></path></g><g id="freepik--Picture--inject-518"><path d="M242.5,47.6V211.36H154.86V47.6H242.5m3.06-3.06H151.8V214.41h93.76V44.54Z" style="fill:none;stroke:#a2a7a9;stroke-miterlimit:10"></path><path d="M160.08,78.52a21.7,21.7,0,0,0,2.78,1.72,43.72,43.72,0,0,0,5.95,2.53c1,.35,2,.67,3.07,1a16.91,16.91,0,0,0,3.18.64v-.23A16.83,16.83,0,0,1,172,83.4c-1-.32-2-.68-3-1.06a43.29,43.29,0,0,1-5.77-2.7,20.21,20.21,0,0,1-2.61-1.76,6.73,6.73,0,0,1-2-2.25l-.14-.32c0-.11,0-.22-.07-.33a2.3,2.3,0,0,1,0-.64,2.61,2.61,0,0,1,.58-1.18,7.37,7.37,0,0,1,2.42-1.7,14,14,0,0,1,1.43-.62c.47-.21,1-.35,1.49-.52a26.87,26.87,0,0,1,3-.88l1.53-.37,1.55-.26c1-.2,2.09-.25,3.13-.36a82.09,82.09,0,0,1,12.69.54,126.21,126.21,0,0,0,12.93.67,87.49,87.49,0,0,0,12.93-1.14,92.35,92.35,0,0,0,12.62-3l1.54-.51c.51-.18,1-.4,1.52-.6s1-.41,1.5-.66,1-.44,1.47-.74a13,13,0,0,0,2.68-2,4.28,4.28,0,0,0,.56-.64,3.5,3.5,0,0,0,.45-.72,2.1,2.1,0,0,0,.12-1.7l-.2.1a1.84,1.84,0,0,1-.34,1.38,2.55,2.55,0,0,1-.47.58,3.05,3.05,0,0,1-.57.5,11.49,11.49,0,0,1-2.7,1.51c-.46.23-1,.38-1.46.57a14.65,14.65,0,0,1-1.5.5c-.5.14-1,.31-1.51.45l-1.54.38c-4.11,1-8.31,1.65-12.51,2.24-2.11.23-4.21.54-6.32.69s-4.21.34-6.33.44a110.55,110.55,0,0,1-12.73-.23c-2.24-.13-4.5-.29-6.78-.35a26.3,26.3,0,0,0-.18-4.52,15,15,0,0,0-.62-2.85,7.49,7.49,0,0,0-.3-.73c-.09-.23-.31-.55-.39-.72s0,0,0,0,0-.07.1-.17a2.85,2.85,0,0,1,.64-.72,9,9,0,0,1,.94-.73A21.67,21.67,0,0,1,182,55.08,25,25,0,0,1,187,53.17a24.31,24.31,0,0,1,5.24-.87,14.47,14.47,0,0,1,5.18.81,26.23,26.23,0,0,1,9.2,5.61l.17-.15a27,27,0,0,0-4.11-3.73A23.22,23.22,0,0,0,197.78,52a16,16,0,0,0-5.59-1.22,26,26,0,0,0-5.65.57A30.41,30.41,0,0,0,181.07,53a15.13,15.13,0,0,0-2.6,1.38,6.6,6.6,0,0,0-2.29,2.39,2.62,2.62,0,0,0-.27,1.14,2.14,2.14,0,0,0,.42,1.29c.15.23.21.28.32.46s.19.33.27.52a17,17,0,0,1,.92,2.43c.42,1.36.79,2.76,1.16,4.16a49.44,49.44,0,0,0-5.57.18c-1.09.14-2.17.22-3.24.46l-1.61.31-1.58.42a30.26,30.26,0,0,0-3.1,1,19.92,19.92,0,0,0-3,1.28,8.14,8.14,0,0,0-2.7,2.08,3.47,3.47,0,0,0-.75,1.7,3,3,0,0,0,.07,1,3.69,3.69,0,0,0,.11.45l.2.41A7.6,7.6,0,0,0,160.08,78.52Z" style="fill:#919191"></path><path d="M204.88,105a22.16,22.16,0,0,0-1-2.13c-.77-1.38-1.6-2.71-2.47-4-1.43-2.12-2.92-4.18-4.46-6.22.62-1.14,1.21-2.28,1.74-3.46.63-1.36,1.21-2.74,1.71-4.16a12.93,12.93,0,0,0,4.39.1,15.6,15.6,0,0,0,4.77-1.59c.7-.39,1.41-.77,2.09-1.19s1.35-.88,2-1.39a18.43,18.43,0,0,0,3.5-3.45,8,8,0,0,0,1.24-2.22,4.27,4.27,0,0,0,.24-1.28,2,2,0,0,0-.36-1.27l-.2.13a2.65,2.65,0,0,1-.62,2,9,9,0,0,1-1.49,1.6c-.28.25-.56.49-.86.71s-.58.47-.9.68l-.92.66-1,.61-3.88,2.48a12.33,12.33,0,0,1-4,1.76,11.21,11.21,0,0,1-4.36.12A13.81,13.81,0,0,1,195.82,82a23,23,0,0,1-7-6l-.19.13a22.1,22.1,0,0,0,2.95,3.73,20.73,20.73,0,0,0,3.7,3.08,15.49,15.49,0,0,0,4.44,1.94c-2,2.75-3.78,5.54-5.67,8.25-1.08,1.56-2.14,3.13-3.27,4.58a12.53,12.53,0,0,1-1.79,2,2.79,2.79,0,0,1-.87.52c-.05,0-.11,0-.15,0s-.05,0-.08,0l-.11,0a.58.58,0,0,0-.15-.11A6.13,6.13,0,0,1,186.37,98a24.48,24.48,0,0,1-.85-2.67c-.48-1.83-.85-3.71-1.17-5.6-.68-3.77-1.14-7.6-1.55-11.43h-.23c0,3.86.27,7.72.64,11.58.21,1.93.47,3.86.86,5.78a25.48,25.48,0,0,0,.73,2.89,10.88,10.88,0,0,0,.57,1.45,5.13,5.13,0,0,0,1,1.45l.41.35a4.68,4.68,0,0,0,.55.27,4.23,4.23,0,0,0,.62.11,2.78,2.78,0,0,0,.58-.06,4.54,4.54,0,0,0,1.67-.78,14.29,14.29,0,0,0,2.31-2.11,29.59,29.59,0,0,0,3.47-4.81c.28-.48.54-1,.81-1.47,1.46,2,2.88,4.1,4.22,6.21.84,1.32,1.63,2.66,2.35,4a19.67,19.67,0,0,1,1,2.09,6.61,6.61,0,0,1,.34,1.07c.11.45.11.48-.15.66a5.29,5.29,0,0,1-2.11.41c-.76,0-1.53,0-2.31,0-1.54-.08-3.09-.23-4.63-.42-3.09-.37-6.17-.86-9.25-1.39s-6.14-1.09-9.21-1.67l-4.61-.88-1.15-.22-.59-.11-.3,0-.09,0H170l-.22,0a.91.91,0,0,0-.26.13.86.86,0,0,0-.33.37,1.54,1.54,0,0,0-.08.19l0,.14a1.6,1.6,0,0,0,0,.47,4.76,4.76,0,0,0,.09.7c.09.43.21.81.33,1.2,1,3.05,2.32,5.88,3.56,8.76l3.75,8.59c2.43,5.74,4.8,11.51,6.64,17.41a49.56,49.56,0,0,1,2,8.9,12.66,12.66,0,0,1-.1,4.23,3.86,3.86,0,0,1-.77,1.6c-.47.53-1,1.09-1.57,1.62-2.18,2.17-4.54,4.2-6.89,6.25s-4.73,4.09-7,6.24a82.6,82.6,0,0,0-6.6,6.76,30.87,30.87,0,0,0-2.77,3.86,12.56,12.56,0,0,0-1.71,4.43l.23.05c.84-3,2.9-5.42,5-7.64a81.75,81.75,0,0,1,6.87-6.26c4.79-4,9.79-7.71,14.45-12,.58-.56,1.13-1.1,1.71-1.73a6.2,6.2,0,0,0,1.3-2.55,14.67,14.67,0,0,0,.21-5.09,49.54,49.54,0,0,0-2.26-9.32,186.15,186.15,0,0,0-7.13-17.46l-3.9-8.53c-1.29-2.83-2.64-5.68-3.66-8.54a8.86,8.86,0,0,1-.31-1,2.07,2.07,0,0,1,0-.22l.41.06,1.15.2,4.62.8c3.09.53,6.17,1,9.27,1.5s6.2.87,9.33,1.18c1.56.14,3.13.26,4.71.3.78,0,1.58,0,2.37,0,.4,0,.81-.07,1.21-.14a3.49,3.49,0,0,0,1.23-.43,1.08,1.08,0,0,0,.5-.66,1.52,1.52,0,0,0-.08-.72A6.87,6.87,0,0,0,204.88,105Zm-34.78-1h0Z" style="fill:#919191"></path><path d="M239.45,107.83a3.28,3.28,0,0,0-1.27-.79,9.36,9.36,0,0,0-2.57-.38c-3.33,0-6.53.47-9.74.73-1.61.14-3.21.25-4.81.24a18.78,18.78,0,0,1-2.38-.13,8.12,8.12,0,0,1-2.26-.54,10.55,10.55,0,0,1-3.74-2.81,23.38,23.38,0,0,1-2.75-3.92,43.49,43.49,0,0,1-3.7-8.92l-.22.06a43,43,0,0,0,3.52,9.08,23.37,23.37,0,0,0,2.72,4.08,11.28,11.28,0,0,0,3.9,3.06,9.11,9.11,0,0,0,2.43.65,20.37,20.37,0,0,0,2.46.19c1.64,0,3.27,0,4.9-.13,3.23-.19,6.48-.61,9.63-.5a8.59,8.59,0,0,1,2.21.36,2.17,2.17,0,0,1,.78.48,1.11,1.11,0,0,1,.24.71,3.5,3.5,0,0,1-.07.45c-.06.15-.09.29-.17.45a9.79,9.79,0,0,1-.57,1c-.43.64-.92,1.27-1.42,1.9-2,2.48-4.21,4.86-6.37,7.27-4.34,4.81-8.68,9.65-12.66,14.82a87,87,0,0,0-5.62,8c-.44.7-.85,1.41-1.24,2.14s-.77,1.47-1.14,2.22-.66,1.53-1,2.3-.59,1.58-.79,2.41a15.91,15.91,0,0,0-.6,5.18c0,.45.09.9.16,1.34l.36,1.33c.26.83.55,1.54.84,2.32,1.17,3,2.37,6,3.49,9.05s2.22,6,3.16,9.1a80.31,80.31,0,0,1,2.19,9.32,48.4,48.4,0,0,1,.56,9.55,44.63,44.63,0,0,1-1.54,9.49l.21.07A40.79,40.79,0,0,0,219,199.6a50.55,50.55,0,0,0,0-9.84,71.54,71.54,0,0,0-1.83-9.66c-.86-3.16-1.88-6.27-3-9.34s-2.29-6.09-3.42-9.11c-.26-.75-.6-1.53-.83-2.24l-.29-1c-.06-.35-.09-.71-.14-1.07a13.71,13.71,0,0,1,.46-4.42c.16-.75.45-1.48.67-2.22s.55-1.46.9-2.17.65-1.43,1-2.13.74-1.4,1.14-2.08a87.41,87.41,0,0,1,5.32-8c3.84-5.16,8.06-10,12.32-14.93,2.11-2.45,4.27-4.87,6.29-7.45.5-.65,1-1.3,1.45-2a11.08,11.08,0,0,0,.64-1.13,5.24,5.24,0,0,0,.24-.7,3.57,3.57,0,0,0,.09-.74A2.29,2.29,0,0,0,239.45,107.83Z" style="fill:#919191"></path></g><g id="freepik--Dresses--inject-518"><path d="M85.05,90.43l0,.28c.16,2,1,14.15-1.78,17.63-3,3.79-10.11,8.08-21,10.36s-18.7,3.53-22.24,11.62-6.32,34.12-6.32,34.12a21.05,21.05,0,0,0,8.09,4.29c4.8,1.27,7.83.76,9.6,1.27l1.77.5,4.3-8.09,7.58,39.93-.25,14.15s-12.39,26.28-16.68,49.28S42.62,359,42.36,369.88s-1,21-1,21l-.25,42.83H170s-.51-101.21-5.31-133.55-21.22-80.87-22.23-83.65a15,15,0,0,1-1.27-5.05c0-1-.25-8.34-.76-9.86a10.89,10.89,0,0,1-.5-3s4.29-11.12,4.29-16.93V170.5l3,5.31s3,2.52,9.35-.26S167,165.7,169,164.18a14.83,14.83,0,0,0,2.78-2.52s-5.06-19.46-9.6-30.33-22-14.66-27.8-16.68-16.93-5.56-18.7-8.84-1.31-15.38-1.31-15.38Z" style="fill:#263238;stroke:#263238;stroke-miterlimit:10"></path><path d="M144.2,170.5l3,5.31s3,2.52,9.35-.26S167,165.7,169,164.18a14.83,14.83,0,0,0,2.78-2.52s-5.06-19.46-9.6-30.33-22-14.66-27.8-16.68-16.93-5.56-18.7-8.84-1.31-15.38-1.31-15.38H85.05l0,.28c.16,2,1,14.15-1.78,17.63-3,3.79-10.11,8.08-21,10.36s-18.7,3.53-22.24,11.62-6.32,34.12-6.32,34.12a21.05,21.05,0,0,0,8.09,4.29c4.8,1.27,7.83.76,9.6,1.27l1.77.5,4.3-8.09,7.58,39.93s45.19,9.17,74.8-3.79c0,0,4.29-11.12,4.29-16.93Z" style="fill:#fff;stroke:#263238;stroke-miterlimit:10"></path><path d="M99.48,125.77c17.46.66,28.15-6.52,33.48-11.6-6-2.07-15.67-5.32-17.31-8.36-1.77-3.29-1.31-15.38-1.31-15.38H85.05l0,.28c.16,2,1,14.15-1.78,17.63-2.41,3-7.39,6.34-14.79,8.73C72.27,120.12,81.13,125.08,99.48,125.77Z" style="fill:#858585;stroke:#263238;stroke-linecap:round;stroke-linejoin:round"></path><path d="M114.34,90.43c0,3.3-6.55,6-14.64,6s-14.65-2.67-14.65-6,6.56-6,14.65-6S114.34,87.14,114.34,90.43Z" style="fill:#a3a3a3;stroke:#263238;stroke-linecap:round;stroke-linejoin:round"></path><path d="M78.1,205.15a8.1,8.1,0,0,0-1.33,5.67c.33,3.66.33,10.66.33,10.66s-1.66,19.67-1.33,36.67" style="fill:none;stroke:gray;stroke-miterlimit:10"></path><path d="M73.44,218.15s-6.34,36.67-4,54" style="fill:none;stroke:gray;stroke-miterlimit:10"></path><path d="M55.69,267.92c-.11,1-.19,1.94-.25,2.9" style="fill:none;stroke:gray;stroke-miterlimit:10"></path><path d="M71.1,221.82s-11,20.91-14.6,40.65" style="fill:none;stroke:gray;stroke-miterlimit:10"></path><path d="M120.35,273.68c-.06,1.43-.14,2.82-.25,4.14" style="fill:none;stroke:gray;stroke-miterlimit:10"></path><path d="M117.1,208.48v11.67s3.42,26.83,3.36,47.74" style="fill:none;stroke:gray;stroke-miterlimit:10"></path><path d="M131.77,204.15l1.33,12.67s8.67,29.66,8.67,53.66" style="fill:none;stroke:gray;stroke-miterlimit:10"></path><path d="M151.46,261.68a51.37,51.37,0,0,1,.64,7.47" style="fill:none;stroke:gray;stroke-miterlimit:10"></path><path d="M136.1,202.15c0,1,1.67,13,1.67,13s8.3,21.24,12.27,39" style="fill:none;stroke:gray;stroke-miterlimit:10"></path><path d="M292.5,85.17a29,29,0,0,0-29,29V419.66h9V114.17a20,20,0,0,1,20-20H479v-9Z" style="fill:#fff;stroke:#263238;stroke-miterlimit:10"></path><path d="M443.49,145.75l-5.72-3.95a53.94,53.94,0,0,1-18.62-23.34l-4.77-11.12h-7.57L402,118.46a54,54,0,0,1-18.63,23.34l-5.72,3.95a12.82,12.82,0,0,0-5.16,10.57h76.12A12.82,12.82,0,0,0,443.49,145.75Zm-30.77,5.89H380c0-3.51,5.6-6.76,7.81-8.55l4-3.2A43.14,43.14,0,0,0,404.67,121l3.3-9h5.24l3.3,9a43.14,43.14,0,0,0,12.9,18.87l4,3.2c2.22,1.79,7.7,5,7.7,8.55Z" style="fill:#fff;stroke:#263238;stroke-linejoin:round"></path><path d="M410.55,107.16V99s4.66-3.5,4.66-8.56-3.88-7-8.16-5.44" style="fill:none;stroke:#263238;stroke-linecap:round;stroke-linejoin:round"></path><path d="M399.56,120.79l8.81,25.33,10.78-27.66s18.41,18.85,24.46,22.15,11.56,7.71,13.22,16.52S467.29,254,467.29,254l-20.37,1.1L448.76,305H366.53l5-52H352.21s12.11-95.26,15.42-101.87S399.56,120.79,399.56,120.79Z" style="fill:#263238;stroke:#263238;stroke-linejoin:round"></path><polygon points="391.3 126.85 396.26 153.83 406.72 136.21 400.11 117.49 391.3 126.85" style="fill:#fff;stroke:#263238;stroke-linejoin:round"></polygon><polygon points="419.15 118.46 410.02 136.76 419.38 154.93 427.09 124.64 419.15 118.46" style="fill:#fff;stroke:#263238;stroke-linejoin:round"></polygon><line x1="446.92" y1="255.14" x2="442.51" y2="171.45" style="fill:none;stroke:gray;stroke-miterlimit:10"></line><line x1="371.48" y1="252.94" x2="379.19" y2="171.45" style="fill:none;stroke:#263238;stroke-linejoin:round"></line><path d="M421.68,145.75,416,141.8a54,54,0,0,1-18.62-23.34l-4.77-11.12H385l-4.77,11.12a54,54,0,0,1-18.62,23.34l-5.72,3.95a12.82,12.82,0,0,0-5.16,10.57h76.11A12.82,12.82,0,0,0,421.68,145.75Zm-30.77,5.89H358.2c0-3.51,5.59-6.76,7.81-8.55l4-3.2c5.54-4.47,10-11,12.89-18.87l3.3-9h5.25l3.3,9c2.88,7.85,7.35,14.4,12.89,18.87l4,3.2c2.22,1.79,7.71,5,7.71,8.55Z" style="fill:#fff;stroke:#263238;stroke-linejoin:round"></path><path d="M388.74,107.16V99s4.67-3.5,4.67-8.56-3.89-7-8.17-5.44" style="fill:none;stroke:#263238;stroke-linecap:round;stroke-linejoin:round"></path><path d="M377.76,120.79l8.81,25.33,10.77-27.66s18.41,18.85,24.47,22.15,11.56,7.71,13.21,16.52S445.48,254,445.48,254l-20.37,1.1L427,305H344.72l5-52H330.4s12.12-95.26,15.42-101.87S377.76,120.79,377.76,120.79Z" style="fill:#92E3A9;stroke:#263238;stroke-linejoin:round"></path><polygon points="369.5 126.85 374.45 153.83 384.92 136.21 378.31 117.49 369.5 126.85" style="fill:#fff;stroke:#263238;stroke-linejoin:round"></polygon><polygon points="397.34 118.46 388.22 136.76 397.58 154.93 405.29 124.64 397.34 118.46" style="fill:#fff;stroke:#263238;stroke-linejoin:round"></polygon><line x1="425.11" y1="255.14" x2="420.7" y2="171.45" style="fill:none;stroke:#263238;stroke-linejoin:round"></line><line x1="349.68" y1="252.94" x2="357.38" y2="171.45" style="fill:none;stroke:#263238;stroke-linejoin:round"></line><path d="M373.92,149.19l-6-4.18a57,57,0,0,1-19.67-24.64l-5-11.75h-8l-5,11.75A57,57,0,0,1,310.47,145l-6,4.18A13.53,13.53,0,0,0,299,160.35h80.39A13.53,13.53,0,0,0,373.92,149.19Zm-32.5,6.22H306.87c0-3.71,5.91-7.14,8.25-9L319.3,143c5.85-4.72,10.58-11.64,13.62-19.93l3.49-9.51h5.53l3.49,9.51c3,8.29,7.77,15.21,13.62,19.93l4.18,3.38c2.34,1.89,8.13,5.32,8.13,9Z" style="fill:#fff;stroke:#263238;stroke-linejoin:round"></path><path d="M339.13,108.43V99.8s4.92-3.69,4.92-9S340,83.38,335.43,85" style="fill:none;stroke:#263238;stroke-linecap:round;stroke-linejoin:round"></path><path d="M316.16,136.17s9.16,10.56,20.67,10.74c12.22.19,26.58-10.5,26.58-10.5a60.11,60.11,0,0,0,10.64,7.35c6.39,3.49,10.6,8.59,13.95,17.45,3.74,9.86,12,36.7,12,36.7l-23.78,1.16L379.48,253H300.39l5.36-54.94H282.66s7.65-36.27,11.14-43.25S316.16,136.17,316.16,136.17Z" style="fill:#fff;stroke:#263238;stroke-linejoin:round"></path><line x1="305.75" y1="198.06" x2="306.96" y2="169.23" style="fill:none;stroke:#263238;stroke-linejoin:round"></line><line x1="376.22" y1="199.07" x2="374.36" y2="171.07" style="fill:none;stroke:#263238;stroke-linejoin:round"></line></g><g id="freepik--Table--inject-518"><line x1="20.33" y1="433.96" x2="480.33" y2="433.96" style="fill:none;stroke:#263238;stroke-linecap:round;stroke-linejoin:round"></line></g><g id="freepik--Plant--inject-518"><path d="M42.18,376.4s-.23-6-2.77-10.16-11.77-7.16-16.62-5.08a66.9,66.9,0,0,0-7.16,3.46,54.44,54.44,0,0,1,13.62,6.47A34.34,34.34,0,0,0,42.18,376.4Z" style="fill:#92E3A9;stroke:#263238;stroke-linecap:round;stroke-linejoin:round"></path><path d="M51.87,379.4s-5.54-5.31-6.46-12.7,6.93-18.93,6.93-18.93a82.34,82.34,0,0,1,6.23,15.47C60.88,371.55,51.87,379.4,51.87,379.4Z" style="fill:#92E3A9;stroke:#263238;stroke-linecap:round;stroke-linejoin:round"></path><path d="M62.49,377.09s-1.38-6.93,1.16-11.77,9.23-4.39,15.92-2.31,8.78,2.08,8.78,2.08a99.58,99.58,0,0,1-14.55,8.08A89.16,89.16,0,0,1,62.49,377.09Z" style="fill:#92E3A9;stroke:#263238;stroke-linecap:round;stroke-linejoin:round"></path><path d="M51.94,402a.6.6,0,0,1-.6-.6v-33a.6.6,0,0,1,.6-.6.59.59,0,0,1,.59.6v33A.59.59,0,0,1,51.94,402Z" style="fill:#263238"></path><path d="M54.71,402h-.09a.61.61,0,0,1-.51-.67c.12-.83,2.91-20.39,12.38-31.25a.6.6,0,0,1,.9.79c-9.24,10.59-12.07,30.42-12.09,30.62A.6.6,0,0,1,54.71,402Z" style="fill:#263238"></path><path d="M49.17,401.5h0a.59.59,0,0,1-.59-.6c0-.19.09-19-11.09-27.92a.6.6,0,0,1,.75-.93c11.63,9.31,11.54,28.07,11.53,28.86A.59.59,0,0,1,49.17,401.5Z" style="fill:#263238"></path><path d="M58.4,401.27a.44.44,0,0,1-.16,0,.6.6,0,0,1-.42-.73,38.68,38.68,0,0,1,5.4-11.28.61.61,0,0,1,.84-.13.6.6,0,0,1,.13.84A38,38,0,0,0,59,400.83.59.59,0,0,1,58.4,401.27Z" style="fill:#263238"></path><path d="M62,392.09s-.23-6.46,2.54-7.38,5.31,1.38,7.39,2.77,4.38,2.77,4.38,6.92-1.61,11.78-1.61,11.78-2.31-7.16-6.24-10.39S62,392.09,62,392.09Z" style="fill:#92E3A9;stroke:#263238;stroke-linecap:round;stroke-linejoin:round"></path><path d="M45,401.5a.6.6,0,0,1-.57-.41c0-.06-1.85-5.64-6-8.95a.59.59,0,0,1-.1-.84.61.61,0,0,1,.84-.1c4.47,3.54,6.35,9.28,6.43,9.52a.6.6,0,0,1-.39.75Z" style="fill:#263238"></path><path d="M42.18,394.17S43.1,390,40.79,387s-7.85-2.31-10.62.92-6.69,12.93-6.69,12.93,5.54-4.39,12-4.39S42.18,394.17,42.18,394.17Z" style="fill:#92E3A9;stroke:#263238;stroke-linecap:round;stroke-linejoin:round"></path><polygon points="60.57 436.89 42.15 436.89 32.94 406.42 69.78 406.42 60.57 436.89" style="fill:#fff;stroke:#263238;stroke-linecap:round;stroke-linejoin:round"></polygon><rect x="32.83" y="401.37" width="37.05" height="5.05" style="fill:#fff;stroke:#263238;stroke-linecap:round;stroke-linejoin:round"></rect></g><g id="freepik--Threads--inject-518"><rect x="427.74" y="381.72" width="8.66" height="5.01" style="fill:#fff;stroke:#263238;stroke-linecap:round;stroke-linejoin:round"></rect><polygon points="448.44 436.89 415.71 436.89 423.46 385.37 440.69 385.37 448.44 436.89" style="fill:#858585;stroke:#263238;stroke-linecap:round;stroke-linejoin:round"></polygon><line x1="422.41" y1="393.88" x2="438.25" y2="385.44" style="fill:none;stroke:#263238;stroke-linecap:round;stroke-linejoin:round"></line><line x1="422.41" y1="398.18" x2="438.25" y2="389.75" style="fill:none;stroke:#263238;stroke-linecap:round;stroke-linejoin:round"></line><line x1="441.7" y1="394.22" x2="425.68" y2="403.18" style="fill:none;stroke:#263238;stroke-linecap:round;stroke-linejoin:round"></line><line x1="425.17" y1="408.69" x2="430.68" y2="405.93" style="fill:none;stroke:#263238;stroke-linecap:round;stroke-linejoin:round"></line><line x1="444.8" y1="414.37" x2="421.72" y2="426.43" style="fill:none;stroke:#263238;stroke-linecap:round;stroke-linejoin:round"></line><line x1="424.13" y1="431.08" x2="442.56" y2="421.43" style="fill:none;stroke:#263238;stroke-linecap:round;stroke-linejoin:round"></line><line x1="422.07" y1="431.94" x2="417.59" y2="434.52" style="fill:none;stroke:#263238;stroke-linecap:round;stroke-linejoin:round"></line><line x1="446.52" y1="428.15" x2="434.64" y2="434.35" style="fill:none;stroke:#263238;stroke-linecap:round;stroke-linejoin:round"></line><rect x="404.53" y="381.72" width="8.66" height="5.01" style="fill:#fff;stroke:#263238;stroke-linecap:round;stroke-linejoin:round"></rect><polygon points="425.22 436.89 392.5 436.89 400.24 385.37 417.48 385.37 425.22 436.89" style="fill:#fff;stroke:#263238;stroke-linecap:round;stroke-linejoin:round"></polygon><line x1="399.2" y1="393.88" x2="415.04" y2="385.44" style="fill:none;stroke:#263238;stroke-linecap:round;stroke-linejoin:round"></line><line x1="399.2" y1="398.18" x2="415.04" y2="389.75" style="fill:none;stroke:#263238;stroke-linecap:round;stroke-linejoin:round"></line><line x1="418.48" y1="394.22" x2="402.47" y2="403.18" style="fill:none;stroke:#263238;stroke-linecap:round;stroke-linejoin:round"></line><line x1="401.95" y1="408.69" x2="407.46" y2="405.93" style="fill:none;stroke:#263238;stroke-linecap:round;stroke-linejoin:round"></line><line x1="421.58" y1="414.37" x2="398.51" y2="426.43" style="fill:none;stroke:#263238;stroke-linecap:round;stroke-linejoin:round"></line><line x1="400.92" y1="431.08" x2="419.34" y2="421.43" style="fill:none;stroke:#263238;stroke-linecap:round;stroke-linejoin:round"></line><line x1="398.85" y1="431.94" x2="394.37" y2="434.52" style="fill:none;stroke:#263238;stroke-linecap:round;stroke-linejoin:round"></line><line x1="423.3" y1="428.15" x2="411.42" y2="434.35" style="fill:none;stroke:#263238;stroke-linecap:round;stroke-linejoin:round"></line></g><g id="freepik--Character--inject-518"><path d="M269.9,257.65s-39.66,7.66-50.33,10.33-14.67,10.67-18.33,19.67-29.67,66-31,69.33,7,5.33,17.33,9,16.33,7.67,19.33,3.67,10.67-19.34,10.67-19.34L214.24,434h123l-5.34-87.33s4.67-68,4.34-70.67-41-18.67-45.34-19S269.9,257.65,269.9,257.65Z" style="fill:#92E3A9"></path><g style="opacity:0.4"><path d="M215.92,391.62l-.2,5.12a426.92,426.92,0,0,0,119.36,1.86l-.31-5A419.23,419.23,0,0,1,215.92,391.62Z" style="fill:#fff"></path><path d="M321.79,312.28c-2.33,2.06-23.66,20.35-48.37,22-26.17,1.73-48.88-11.6-49-11.68l-29.94-19.46c-.66,1.48-1.35,3-2.07,4.62l29.37,19.09c1,.58,24.24,14.24,52,12.42s50.67-22.59,51.63-23.47a2.44,2.44,0,0,0,.39-.46,91.22,91.22,0,0,1,8.94-10.95c.16-2.58.32-5.11.47-7.53A95.32,95.32,0,0,0,321.79,312.28Z" style="fill:#fff"></path><path d="M179.75,335.76l-2.06,4.56,36.74,16.13c.92-1.77,1.72-3.34,2.29-4.45Z" style="fill:#fff"></path><path d="M201.8,286.29c13.08,6.72,50.27,25.4,62.15,26.55s51.73-26.54,69.18-39.13c-1.35-.74-3.08-1.59-5.07-2.51-23.55,16.84-55.45,37.45-63.63,36.66-9.79-.94-41.75-16.41-60.57-26.13C203.13,283.2,202.45,284.72,201.8,286.29Z" style="fill:#fff"></path><path d="M217.83,357.93c1.7.52,42,12.64,73,9,26.56-3.08,38.13-12,41.35-15.08l-.32-5.24s.12-1.77.33-4.73A19.07,19.07,0,0,0,329,348C327,350,316.38,359,290.3,362c-29.12,3.37-68.25-8-70.88-8.81l-1.93-.85-.21,5.36.27.13Z" style="fill:#fff"></path><path d="M251.69,324c21.6,3.67,47.82-8.87,64.23-22.93,5.89-5.05,13.17-10.58,19.93-15.49.14-2.58.25-4.76.32-6.4-7.69,5.51-16.54,12.12-23.5,18.09-15.52,13.31-40.14,25.21-60.14,21.8-16.27-2.77-42.85-20.93-52.74-28-.58,1.33-1.27,2.91-2.06,4.69C208.49,303.43,234.68,321.11,251.69,324Z" style="fill:#fff"></path><path d="M336.35,419.42l-.31-5c-25.59,1.32-76.48,3.1-121-.53l-.2,5c19.75,1.6,40.7,2.16,60.17,2.16C299.71,421.05,322,420.16,336.35,419.42Z" style="fill:#fff"></path><path d="M233.86,382.62c30.36,4.39,86.72.06,100.17-1.08l-.9-14.81a13.54,13.54,0,0,0-.59,1.34,2.43,2.43,0,0,0-.13,1.33l1.3,7.14c-13,1.09-69.63,5.4-99.14,1.13-5.85-.85-11.93-1.89-18-3l-.2,5.05C222.27,380.79,228.16,381.79,233.86,382.62Z" style="fill:#fff"></path><path d="M218.67,341.16c2,1.18,30.08,17.76,60.13,14.17,30.48-3.63,50.73-23.57,51.58-24.42a2,2,0,0,0,.51-.75,12.44,12.44,0,0,1,2.31-2.72c.15-2.23.3-4.56.46-7-4.67,3.56-6.45,6-7.09,7.15-2.46,2.33-21.47,19.53-48.36,22.74-28.74,3.44-56.73-13.35-57-13.52l-.13-.08L187.33,319c-.69,1.51-1.38,3-2.06,4.56Z" style="fill:#fff"></path></g><line x1="217.57" y1="350.31" x2="225.89" y2="310.21" style="fill:#fff;stroke:#263238;stroke-linecap:round;stroke-linejoin:round"></line><path d="M211.93,271.48c12,8.37,47,32.38,53.64,31.83,6.08-.5,33.75-26.44,46.66-38.85-9.82-3.92-19.35-7.33-21.33-7.48-4.33-.33-21,.67-21,.67s-39.66,7.66-50.33,10.33A21.72,21.72,0,0,0,211.93,271.48Z" style="fill:#fff;stroke:#263238;stroke-linecap:round;stroke-linejoin:round"></path><path d="M269.9,257.65s-39.66,7.66-50.33,10.33-14.67,10.67-18.33,19.67-29.67,66-31,69.33,7,5.33,17.33,9,16.33,7.67,19.33,3.67,10.67-19.34,10.67-19.34L214.24,434h123l-5.34-87.33s4.67-68,4.34-70.67-41-18.67-45.34-19S269.9,257.65,269.9,257.65Z" style="fill:none;stroke:#263238;stroke-linecap:round;stroke-linejoin:round"></path><path d="M300.24,259s-1,19.67-5.34,48.67-4.33,27.66-4.33,41,3.33,56,3.33,56h5.34s-4.34-45-4-56.67,3-35,6-45.33,4-41,4-41Z" style="fill:#fff;stroke:#263238;stroke-linecap:round;stroke-linejoin:round"></path><path d="M259,259.36,251.9,261s-3,19.33-1.66,38,3.33,24.33,3.33,24.33,1.67-45.33,3-53.66S259,259.36,259,259.36Z" style="fill:#fff;stroke:#263238;stroke-linecap:round;stroke-linejoin:round"></path><path d="M253.57,323.31s.67,21-.67,43-1.33,41.34-1.33,41.34l6,.33s-.67-25.33-.67-46.67A215.51,215.51,0,0,0,253.57,323.31Z" style="fill:#fff;stroke:#263238;stroke-linecap:round;stroke-linejoin:round"></path><polyline points="262.9 278.65 263.9 244.98 298.57 244.98 297.9 275.65" style="fill:#fff;stroke:#263238;stroke-linecap:round;stroke-linejoin:round"></polyline><path d="M298.37,254.2,289.94,245h-26l-.73,24.62c1.94.76,6.55,1.81,14.57-.53,10.35-3,19.49-13.3,20.62-14.61Z" style="fill:#263238;stroke:#263238;stroke-linecap:round;stroke-linejoin:round"></path><path d="M247.62,162.81c-6.94,6.94-12.76,16.55-13.05,25-.35,9.95-6.17,24-9.26,25.37a14.84,14.84,0,0,0-4.11,2.4s6.51,3.09,9.25,2.74A21.38,21.38,0,0,0,235.6,217a50.41,50.41,0,0,1-3.43,4.12l-1.37,1.37,5.48,1.37a28.58,28.58,0,0,1-6.51,3.08,20.25,20.25,0,0,1-4.46.69s.69,6.17,7.89,8.23a30.42,30.42,0,0,0,12.68,1L241.77,241s1,1,7.88,1.37,10.28-1.71,10.28-1.71l42.17-1.72s1,3.43,5.83,5.14,7.2,2.4,7.2,2.4-.69-2.74-1-4.11-1-6.86-1-6.86,2.4,6.17,13.71,6.52,15.08-6.17,15.08-6.17A9.11,9.11,0,0,1,335,232c-2.74-3.77-3.09-5.15-3.09-5.15s4.46,1.72,7.89,1.38a12.52,12.52,0,0,0,6.17-2.75s-13.37-9.6-14.06-16.11-2.4-31.88-7.2-40.45-13-16.45-34.28-20.23c-11.49-2-23.56,1.33-33.6,6.92A42.89,42.89,0,0,0,247.62,162.81Z" style="fill:#263238;stroke:#263238;stroke-linecap:round;stroke-linejoin:round"></path><path d="M302.31,194.07s-20.43,17.72-52.18,22.63c0,0,.09,20.17,11,33.64,11.82,14.63,19.08,14.75,22.12,14.51,8.27-.65,25.13-20.18,25.88-23.58S311,225,311,216.7,301.17,202.76,302.31,194.07Z" style="fill:#fff;stroke:#263238;stroke-linecap:round;stroke-linejoin:round"></path><path d="M243.65,222.52a1.07,1.07,0,0,1,0-2.14c41.89-1.16,56.95-24.36,57.1-24.6a1.07,1.07,0,0,1,1.8,1.14c-.62,1-15.73,24.4-58.84,25.6Z" style="fill:#263238"></path><path d="M262.73,228.78a19.25,19.25,0,0,0,7.3,0" style="fill:none;stroke:#263238;stroke-linecap:round;stroke-linejoin:round"></path><path d="M293.42,228.4a20.43,20.43,0,0,0,8.42-.18" style="fill:none;stroke:#263238;stroke-linecap:round;stroke-linejoin:round"></path><path d="M298,225.65c0,1.66-.67,3-1.51,3s-1.5-1.35-1.5-3,.67-3,1.5-3S298,224,298,225.65Z" style="fill:#263238"></path><path d="M312.29,221c-.61-1.17-2-1.92-4.24-2.23-3.51-.49-22.54.78-23.35.83l-.33.07a4.71,4.71,0,0,0-.59.3v-.1h-5.93v.1a4.71,4.71,0,0,0-.59-.3l-.33-.07c-.81-.05-19.84-1.33-23.35-.83-2.2.31-3.63,1.06-4.24,2.23a2.92,2.92,0,0,0,0,2.74c.08.17.18.45.31.82,1.1,3.1,4,11.34,14.34,11.74l1.36,0c10.31,0,12.83-4.87,14.37-9.48a9.55,9.55,0,0,0,.29-1.14h1.53a9.55,9.55,0,0,0,.29,1.14c1.54,4.61,4.05,9.48,14.37,9.48l1.36,0c10.32-.4,13.24-8.64,14.34-11.74.13-.37.23-.65.31-.82A2.92,2.92,0,0,0,312.29,221Zm-32.56,1.11h2.17a4.6,4.6,0,0,0-.4,1.36h-1.37A4.6,4.6,0,0,0,279.73,222.1Zm-2.09,4c-1.52,4.56-3.58,8.29-13.52,7.93-8.8-.34-11.27-7.29-12.33-10.26-.17-.48-.3-.85-.41-1.07a.78.78,0,0,1-.06-.7c.09-.17.55-.77,2.58-1.06a22.58,22.58,0,0,1,2.42-.09c5.1,0,15.65.62,20.25.93C277.09,222.08,278.62,223.17,277.64,226.13Zm32.61-3.4c-.11.22-.24.59-.41,1.07-1.06,3-3.53,9.92-12.33,10.26-9.93.37-12-3.37-13.52-7.93-1-3,.55-4,1.07-4.32,5.59-.37,20-1.22,22.67-.84,2,.29,2.49.89,2.58,1.06A.75.75,0,0,1,310.25,222.73Z" style="fill:#fff;stroke:#263238;stroke-linecap:round;stroke-linejoin:round"></path><path d="M274.92,239.51s3.62,2.82,6.23,2.62,5.23-2,5.83-3.22" style="fill:none;stroke:#263238;stroke-linecap:round;stroke-linejoin:round"></path><path d="M272.11,244.54s1.47,4.82,10.45,4.42c6.36-.29,7.84-5,7.84-5" style="fill:none;stroke:#263238;stroke-linecap:round;stroke-linejoin:round"></path><path d="M288,217s6.62-3.6,11.85-3,7.43,2.41,7.43,2.41" style="fill:none;stroke:#263238;stroke-linecap:round;stroke-linejoin:round;stroke-width:2px"></path><path d="M273.77,216.8a23.61,23.61,0,0,0-9.9-1.6,25.52,25.52,0,0,0-9,2.41" style="fill:none;stroke:#263238;stroke-linecap:round;stroke-linejoin:round;stroke-width:2px"></path><path d="M267,225.65c0,1.66-.68,3-1.51,3s-1.51-1.35-1.51-3,.68-3,1.51-3S267,224,267,225.65Z" style="fill:#263238"></path><path d="M330.57,273.31s16.67,5.34,20,8.67,24,52.33,30,60.33,3,11.67,0,14.67-22,11-29.33,11.67S336.24,371,332.9,358s-4-31.67-7.33-41.33-4.33-11-4.33-11" style="fill:#92E3A9"></path><g style="opacity:0.4"><path d="M342.11,314.91c-8.54,5-12.53,8.78-14.36,11,.35,2.07.68,4.25,1,6.5.95-.85,1.51-1.41,1.64-1.53a2,2,0,0,0,.51-.75s2.1-4.12,13.75-10.94c5.52-3.24,13.13-6.34,19.94-8.8l-2.11-4.56A130.86,130.86,0,0,0,342.11,314.91Z" style="fill:#fff"></path><path d="M350.27,327.82c-12.39,6.49-17.64,12.86-19.85,16.89.38,2.62.79,5.2,1.26,7.67a15.74,15.74,0,0,0,1.52-1.49,2.67,2.67,0,0,0,.56-1.22c0-.08,1.72-8.46,18.83-17.42a66.16,66.16,0,0,1,19.14-6.59c-.73-1.52-1.48-3.09-2.23-4.7A71.75,71.75,0,0,0,350.27,327.82Z" style="fill:#fff"></path><path d="M335,363.44a11,11,0,0,0,3.47,3.94c2.24-3.92,7.87-11.72,19.41-17.19a95.33,95.33,0,0,1,23.24-7.13l-.53-.75a37.14,37.14,0,0,1-2.36-3.81,98.05,98.05,0,0,0-22.49,7.17A49,49,0,0,0,335,363.44Z" style="fill:#fff"></path><path d="M323.25,310.22c.54,1.41,1.22,3.25,2,5.63a.38.38,0,0,0,.09-.08,2.44,2.44,0,0,0,.39-.46c.16-.23,13.37-19.95,29.24-25.29-.85-1.73-1.61-3.25-2.27-4.5C338.79,290.55,327.38,304.6,323.25,310.22Z" style="fill:#fff"></path><path d="M329.76,276.13,332.7,274l-2.13-.71Z" style="fill:#fff"></path><path d="M326.92,286,324.59,294c7.06-5.49,14.67-10.95,20.69-15.15-1.7-.79-3.6-1.56-5.46-2.28C335.85,279.39,331.39,282.6,326.92,286Z" style="fill:#fff"></path></g><path d="M330.57,273.31s16.67,5.34,20,8.67,24,52.33,30,60.33,3,11.67,0,14.67-22,11-29.33,11.67S336.24,371,332.9,358s-4-31.67-7.33-41.33-4.33-11-4.33-11" style="fill:none;stroke:#263238;stroke-miterlimit:10"></path><path d="M381.9,375s-3-13-5.66-17.67-22.67-.66-30.34,2.34S298.57,373,286.24,376s-20.34,6.67-24.67,11-24.33,14.33-23,16.33,7.67,2,12,2,15-3.33,16-4a4.81,4.81,0,0,1,2.33-.66l-7.33,5.66s1,3,4.67.67,10.33-7,11.66-8,7.67-3.33,9.67-5.33a18.59,18.59,0,0,0,3.33-5.34s45.34,1.34,66.34-2S380.9,377.31,381.9,375Z" style="fill:#fff;stroke:#263238;stroke-linecap:round;stroke-linejoin:round"></path><path d="M246.57,405.31s0-1.66,3.67-3,10-3,17.33-9" style="fill:none;stroke:#263238;stroke-linecap:round;stroke-linejoin:round"></path><path d="M268.9,400.65s4.67-3.34,7.34-5.67" style="fill:none;stroke:#263238;stroke-linecap:round;stroke-linejoin:round"></path><path d="M242.24,404.65s-.34-2.67,4-4.67,8.66-3.33,16.66-9.67" style="fill:none;stroke:#263238;stroke-linecap:round;stroke-linejoin:round"></path><path d="M205.57,391.65S203.24,383,199.9,368s-16.33-16.67-22-15.33-9.33,5.66-7.66,14.66,15.66,35,17.66,37.34,16,.66,19.67-3.67S205.57,391.65,205.57,391.65Z" style="fill:#fff;stroke:#263238;stroke-linecap:round;stroke-linejoin:round"></path><path d="M191.57,403s11.67-8.67,15.33-10.33,16.67-1.67,21-.67,10,13,10,13-37,2-42.33,2-7.33,1-7.67-2.33" style="fill:#fff;stroke:#263238;stroke-linecap:round;stroke-linejoin:round"></path><path d="M215.9,406.31s-8.66-9-10.33-10.66" style="fill:none;stroke:#263238;stroke-linecap:round;stroke-linejoin:round"></path><line x1="222.57" y1="405.31" x2="212.57" y2="393.65" style="fill:none;stroke:#263238;stroke-linecap:round;stroke-linejoin:round"></line><path d="M230.9,405.65S224.24,396,220.57,393" style="fill:none;stroke:#263238;stroke-linecap:round;stroke-linejoin:round"></path><rect x="107.48" y="329.07" width="10.7" height="16.58" style="fill:#92E3A9;stroke:#263238;stroke-linecap:round;stroke-linejoin:round"></rect><line x1="107.36" y1="334.08" x2="113.65" y2="329.41" style="fill:none;stroke:#263238;stroke-linecap:round;stroke-linejoin:round"></line><line x1="107.59" y1="338.04" x2="118.18" y2="329.07" style="fill:none;stroke:#263238;stroke-linecap:round;stroke-linejoin:round"></line><line x1="109.22" y1="336.64" x2="112.72" y2="341.77" style="fill:none;stroke:#263238;stroke-linecap:round;stroke-linejoin:round"></line><line x1="112.25" y1="334.31" x2="116.22" y2="340.37" style="fill:none;stroke:#263238;stroke-linecap:round;stroke-linejoin:round"></line><line x1="115.29" y1="331.75" x2="118.08" y2="336.87" style="fill:none;stroke:#263238;stroke-linecap:round;stroke-linejoin:round"></line><line x1="108.29" y1="345.73" x2="118.08" y2="338.74" style="fill:none;stroke:#263238;stroke-linecap:round;stroke-linejoin:round"></line><line x1="113.89" y1="345.27" x2="117.85" y2="342.94" style="fill:none;stroke:#263238;stroke-linecap:round;stroke-linejoin:round"></line><polygon points="182.38 345.18 180.24 347.63 128.94 347.63 126.81 345.18 96.95 345.18 96.95 368.03 212.23 368.03 212.23 345.18 182.38 345.18" style="fill:#fff;stroke:#263238;stroke-linecap:round;stroke-linejoin:round"></polygon><polygon points="233.66 394.44 200.96 394.44 193.95 337.05 240.67 337.05 233.66 394.44" style="fill:#fff;stroke:#263238;stroke-linecap:round;stroke-linejoin:round"></polygon><polygon points="230.69 337.05 230.2 394.44 233.66 394.44 240.67 337.05 230.69 337.05" style="fill:#fff;stroke:#263238;stroke-linecap:round;stroke-linejoin:round"></polygon><rect x="129.41" y="352.07" width="51.35" height="3.57" rx="1.67" style="fill:#fff;stroke:#263238;stroke-linecap:round;stroke-linejoin:round"></rect><path d="M101.94,368v71.22H275.61V414.67a6.44,6.44,0,0,0-6.45-6.44H148.85a4.82,4.82,0,0,1-4.82-4.82v-9.59a30.73,30.73,0,0,1,13.91-25.71h0Z" style="fill:#fff;stroke:#263238;stroke-linecap:round;stroke-linejoin:round"></path><path d="M97,368v71.22H270.61v-31H143.85a4.82,4.82,0,0,1-4.81-4.82v-9.59A30.73,30.73,0,0,1,153,368.11h0Z" style="fill:#fff;stroke:#263238;stroke-linecap:round;stroke-linejoin:round"></path><circle cx="112.03" cy="424.54" r="10.96" style="fill:#858585;stroke:#263238;stroke-linecap:round;stroke-linejoin:round"></circle><polygon points="199.77 384.69 200.96 394.44 233.66 394.44 234.85 384.69 199.77 384.69" style="fill:#858585;stroke:#263238;stroke-linecap:round;stroke-linejoin:round"></polygon><polygon points="230.28 384.69 230.2 394.44 233.66 394.44 234.85 384.69 230.28 384.69" style="fill:#666;stroke:#263238;stroke-linecap:round;stroke-linejoin:round"></polygon><path d="M160.69,447.17s-61.81,1.82-66.35.91,14.54-7.27,40-10.45,67.26,10,67.26,10Z" style="fill:#92E3A9;stroke:#263238;stroke-linecap:round;stroke-linejoin:round"></path><path d="M233.78,402.07c-4.55.14-9.1.53-13.63,1.05-8.28.94-24.23-.12-30.49,6.14,0,0-9.09,14.09-12.72,20s-6.36,9.54-10,10.9-19.09,7.73-19.09,7.73H276.92s19,.66,25.33-7.06c6.87-8.34-4.82-17.84-10.79-22.31-9.85-7.38-20.69-10.55-32.47-13.81A84.56,84.56,0,0,0,233.78,402.07Z" style="fill:#92E3A9;stroke:#263238;stroke-linecap:round;stroke-linejoin:round"></path><path d="M272,437.36s20.33-4,38.18-.5,43.13.5,55,1.49,31.24,3.47,31.24,3.47-29.75,5-45.12,5.95-29.75,2-29.75,2-7.93.5-28.76-5.95Z" style="fill:#92E3A9;stroke:#263238;stroke-linecap:round;stroke-linejoin:round"></path><path d="M229.37,447.77a109.52,109.52,0,0,0,27.76-6.94c15.37-5.95,24.3-5,35.7-.5s15.37,8.43,28.76,9.42Z" style="fill:#263238;stroke:#263238;stroke-linecap:round;stroke-linejoin:round"></path></g></svg>